<?xml version="1.0" standalone="no"?>
<!DOCTYPE svg PUBLIC "-//W3C//DTD SVG 1.1//EN" "http://www.w3.org/Graphics/SVG/1.1/DTD/svg11.dtd" >
<svg xmlns="http://www.w3.org/2000/svg" xmlns:xlink="http://www.w3.org/1999/xlink" version="1.1">
<metadata>
Created by FontForge 20170731 at Wed Oct 25 00:26:22 2023
 By Aleksey,,,
Copyright (c) Inigo Jerez. www.textaxis.com, 2008-2013. All rights reserved.
</metadata>
<defs>
<font id="ASM-Bold" horiz-adv-x="1269" >
  <font-face 
    font-family="ASM-Bold"
    font-weight="400"
    font-stretch="normal"
    units-per-em="2048"
    panose-1="2 0 5 9 4 0 0 2 0 4"
    ascent="1554"
    descent="-494"
    x-height="1057"
    cap-height="1452"
    bbox="0 -496 1274 2030"
    underline-thickness="92"
    underline-position="-237"
    unicode-range="U+0020-FB02"
  />
<missing-glyph 
 />
    <glyph glyph-name="fi" unicode="fi" 
d="M92 827v220h166v106q0 185 126 280q127 95 339 95q96 0 172 -10q78 -10 113 -23l34 -10v-232q-138 50 -305 50q-114 0 -176 -38q-61 -37 -61 -132v-86h577v-1047h-241v827h-336v-827h-242v827h-166z" />
    <glyph glyph-name="fl" unicode="fl" 
d="M92 827v220h166v114q0 185 120 276q119 91 333 91q99 0 190 -15q98 -16 135 -30l41 -15v-1468h-241v827h-336v-827h-242v827h-166zM500 1141v-94h336v245q-64 11 -111 11q-115 0 -170 -34t-55 -128z" />
    <glyph glyph-name=".notdef" 
 />
    <glyph glyph-name=".null" horiz-adv-x="0" 
 />
    <glyph glyph-name="nonmarkingreturn" 
 />
    <glyph glyph-name="space" unicode=" " 
 />
    <glyph glyph-name="exclam" unicode="!" 
d="M780 1452l-45 -971h-200l-48 971h293zM442 182q0 79 57 136t136 57q77 0 134 -57q56 -56 56 -136q0 -78 -56 -134t-134 -56q-80 0 -136 56q-57 57 -57 134z" />
    <glyph glyph-name="quotedbl" unicode="&#x22;" 
d="M557 1452l-18 -643h-240l-18 643h276zM989 1452l-18 -643h-240l-18 643h276z" />
    <glyph glyph-name="numbersign" unicode="#" 
d="M637 0l47 362h-192l-48 -362h-227l47 362h-217v226h248l33 256h-213v225h243l48 354h227l-47 -354h192l47 354h228l-47 -354h217v-225h-248l-33 -256h213v-226h-244l-47 -362h-227zM555 844l-33 -256h193l33 256h-193z" />
    <glyph glyph-name="dollar" unicode="$" 
d="M549 -178v364q-111 15 -192 63q-80 47 -117 104q-39 59 -59 112q-22 57 -23 92l-2 37h239q0 -4 2 -22q1 -9 16 -47q12 -31 38 -60q24 -27 77 -48q55 -22 125 -22q205 0 205 117q0 45 -31 68q-29 22 -106 34l-186 31q-316 51 -316 320q0 133 89 219q88 85 241 106v346h225
v-350q93 -18 163 -65q66 -45 100 -101q32 -53 50 -103q20 -54 21 -83l2 -33h-238q0 13 -1 21q-2 15 -13 43q-12 30 -34 55t-69 44t-112 19q-180 0 -180 -110q0 -82 121 -103l186 -30q334 -55 334 -322q0 -137 -89 -221q-90 -85 -241 -109v-366h-225z" />
    <glyph glyph-name="percent" unicode="%" 
d="M68 1157q0 141 72 226t216 85q145 0 217 -85t72 -226v-43q0 -142 -72 -227q-72 -86 -217 -86q-144 0 -216 86q-72 85 -72 227v43zM356 1294q-106 0 -106 -137v-43q0 -71 23 -104q24 -35 83 -35t83 35q24 34 24 104v43q0 137 -107 137zM625 336q0 140 72 226q72 85 216 85
q145 0 217 -85t72 -226v-43q0 -141 -72 -227t-217 -86q-144 0 -216 86t-72 227v43zM913 473q-106 0 -106 -137v-43q0 -72 23 -105q24 -34 83 -34t83 34t24 105v43q0 137 -107 137zM117 262v221l1036 699v-221z" />
    <glyph glyph-name="ampersand" unicode="&#x26;" 
d="M524 -27q-213 0 -333 111q-119 110 -119 301q0 241 233 387l-24 31q-127 149 -127 313q0 165 107 263q109 100 284 100q170 0 279 -101q108 -100 108 -264q0 -214 -252 -366l-37 -23l231 -266q37 112 37 250v141h230v-143q0 -251 -105 -435l238 -272h-297l-84 96
q-156 -123 -369 -123zM309 385q0 -83 61 -138q60 -54 152 -54q132 0 223 73l-296 342q-140 -89 -140 -223zM500 891l41 24q153 95 153 197q0 70 -41 111t-112 41q-69 0 -109 -42q-41 -43 -41 -108q0 -98 94 -205z" />
    <glyph glyph-name="quotesingle" unicode="'" 
d="M774 1452l-18 -643h-240l-18 643h276z" />
    <glyph glyph-name="parenleft" unicode="(" 
d="M410 659q0 167 27 321q26 151 68 256q43 108 80 178q45 84 66 114l29 35h303q-13 -13 -34 -37q-25 -29 -75 -110q-54 -88 -93 -182q-36 -88 -73 -253q-34 -154 -34 -322q0 -163 32 -320q32 -156 76 -256q46 -103 91 -178q45 -74 77 -114l33 -35h-303q-9 10 -29 37
q-19 25 -65 110q-50 93 -82 182q-36 101 -65 253q-29 151 -29 321z" />
    <glyph glyph-name="parenright" unicode=")" 
d="M860 659q0 -165 -27 -320q-26 -151 -68 -256q-43 -108 -80 -178q-42 -79 -67 -114l-28 -35h-303q13 13 34 37q22 25 74 110q54 88 93 182q39 93 74 253q34 154 34 321q0 164 -32 321q-31 151 -77 256q-46 103 -91 178q-45 74 -77 114l-32 35h303q2 -2 28 -37
q22 -30 66 -110q50 -93 82 -182q34 -95 64 -253q30 -156 30 -322z" />
    <glyph glyph-name="asterisk" unicode="*" 
d="M164 815l280 152l-280 151l104 182l273 -167l-11 319h211l-10 -319l273 167l104 -182l-281 -151l281 -152l-104 -182l-273 168l10 -320h-211l11 320l-273 -168z" />
    <glyph glyph-name="plus" unicode="+" 
d="M106 416v225h416v416h226v-416h415v-225h-415v-416h-226v416h-416z" />
    <glyph glyph-name="comma" unicode="," 
d="M705 -375h-252l77 635h287z" />
    <glyph glyph-name="hyphen" unicode="-" 
d="M266 641h738v-225h-738v225z" />
    <glyph glyph-name="period" unicode="." 
d="M442 182q0 79 57 136t136 57q77 0 134 -57q56 -56 56 -136q0 -78 -56 -134t-134 -56q-80 0 -136 56q-57 57 -57 134z" />
    <glyph glyph-name="slash" unicode="/" 
d="M1194 1452l-858 -1452h-270l858 1452h270z" />
    <glyph glyph-name="zero" unicode="0" 
d="M141 938q0 260 124 402q125 143 370 143t370 -143q123 -141 123 -402v-424q0 -261 -123 -402q-125 -143 -370 -143t-370 143q-124 142 -124 402v424zM393 932v-357l432 582q-57 88 -190 88q-131 0 -186 -79q-56 -80 -56 -234zM444 293q56 -86 191 -86q131 0 186 79
q56 80 56 234v352z" />
    <glyph glyph-name="one" unicode="1" 
d="M813 1452v-1214h358v-238h-968v238h360v968l-358 -188v242l366 192h242z" />
    <glyph glyph-name="two" unicode="2" 
d="M926 674l-410 -436h602v-238h-936v231l555 603q107 118 107 215q0 93 -52 142q-53 50 -149 50q-69 0 -117 -22t-71 -56q-24 -35 -36 -66q-13 -33 -13 -57l-3 -22h-253q0 15 1 26q2 25 11 65q12 55 26 92q17 45 54 98q40 57 87 93q48 37 132 64q83 27 182 27
q203 0 328 -114t125 -316q0 -195 -170 -379z" />
    <glyph glyph-name="three" unicode="3" 
d="M844 403q0 95 -57 149t-166 54h-181v236h181q99 0 157 53t58 154q0 92 -55 142t-150 50q-60 0 -103 -22q-41 -21 -63 -56t-33 -66q-13 -36 -14 -57v-22h-254q0 18 3 50q3 28 28 112q24 78 68 141t140 112q97 50 228 50q203 0 330 -114q126 -113 126 -316
q0 -210 -163 -328q172 -117 172 -326q0 -202 -130 -316t-335 -114q-94 0 -175 26q-80 25 -126 66q-46 40 -83 91q-35 48 -52 99q-17 52 -26 91q-9 40 -9 68l-2 24h254q0 -13 1 -23q2 -19 13 -55q12 -38 33 -67q22 -30 65 -53q47 -25 107 -25q97 0 155 50t58 142z" />
    <glyph glyph-name="four" unicode="4" 
d="M745 0v262h-643v240l592 950h289v-952h193v-238h-193v-262h-238zM369 500h376v608z" />
    <glyph glyph-name="five" unicode="5" 
d="M1133 463q0 -226 -134 -360t-352 -134q-94 0 -175 26q-80 25 -126 66q-46 40 -83 91q-35 48 -52 99q-17 52 -26 91q-9 40 -9 68l-2 24h254q0 -13 1 -23q2 -19 13 -55q12 -38 33 -67q22 -29 66 -53q47 -25 106 -25q234 0 234 256q0 124 -59 192t-171 68q-143 0 -198 -96
h-236l27 821h821v-238h-594l-10 -311q100 55 217 55q206 0 331 -128q124 -127 124 -367z" />
    <glyph glyph-name="six" unicode="6" 
d="M643 1483q92 0 175 -25q80 -24 127 -64q48 -40 84 -87q34 -44 52 -96q18 -53 26 -88q10 -44 11 -64v-25h-254q0 13 -1 23q-2 20 -12 51q-13 40 -32 66q-22 30 -66 51q-45 22 -110 22q-110 0 -170 -64q-59 -63 -59 -188v-145q100 82 243 82q208 0 335 -122
q126 -122 126 -353q0 -234 -133 -361t-344 -127q-231 0 -354 131q-123 130 -123 367v518q0 237 124 367q125 131 355 131zM643 205q223 0 223 252q0 250 -223 250q-229 0 -229 -250q0 -122 59 -187t170 -65z" />
    <glyph glyph-name="seven" unicode="7" 
d="M1110 1223l-512 -1223h-272l518 1214h-668v238h934v-229z" />
    <glyph glyph-name="eight" unicode="8" 
d="M635 -31q-236 0 -364 119t-128 324q0 225 172 342q-139 114 -139 315q0 178 118 296t341 118t341 -118t118 -296q0 -201 -140 -315q172 -118 172 -342q0 -205 -128 -324t-363 -119zM635 203q114 0 176 56q64 58 64 163q0 102 -64 158q-62 55 -176 55t-176 -55
q-64 -56 -64 -158q0 -105 64 -163q62 -56 176 -56zM635 864q207 0 207 193q0 192 -207 192t-207 -192q0 -193 207 -193z" />
    <glyph glyph-name="nine" unicode="9" 
d="M627 -31q-92 0 -175 25q-80 24 -127 64q-48 40 -84 87q-36 46 -53 96q-15 45 -25 88q-10 44 -11 64v25h254q0 -13 1 -23q2 -20 12 -51q12 -38 32 -65q23 -31 66 -52q45 -22 110 -22q110 0 170 64q59 63 59 188v143q-97 -80 -244 -80q-207 0 -334 122q-126 122 -126 353
q0 234 133 361t344 127q231 0 354 -131q123 -130 123 -367v-518q0 -237 -124 -367q-125 -131 -355 -131zM627 1247q-224 0 -224 -252q0 -250 224 -250q229 0 229 250q0 122 -59 187t-170 65z" />
    <glyph glyph-name="colon" unicode=":" 
d="M442 182q0 79 57 136t136 57q77 0 134 -57q56 -56 56 -136q0 -78 -56 -134t-134 -56q-80 0 -136 56q-57 57 -57 134zM442 872q0 80 57 137q56 56 136 56q78 0 134 -56t56 -137q0 -80 -56 -136t-134 -56q-80 0 -136 56q-57 57 -57 136z" />
    <glyph glyph-name="semicolon" unicode=";" 
d="M442 872q0 80 57 137q56 56 136 56q78 0 134 -56t56 -137q0 -80 -56 -136t-134 -56q-80 0 -136 56q-57 57 -57 136zM705 -375h-252l77 635h287z" />
    <glyph glyph-name="less" unicode="&#x3c;" 
d="M1094 1057v-252l-639 -277l639 -276v-252l-918 408v241z" />
    <glyph glyph-name="equal" unicode="=" 
d="M106 623v225h1057v-225h-1057zM106 188v226h1057v-226h-1057z" />
    <glyph glyph-name="greater" unicode="&#x3e;" 
d="M176 805v252l918 -408v-241l-918 -408v252l639 276z" />
    <glyph glyph-name="question" unicode="?" 
d="M584 412v329l133 111q117 99 117 201q0 85 -52 137q-51 51 -145 51q-65 0 -109 -22q-45 -22 -66 -56q-24 -38 -34 -64q-13 -33 -14 -55v-22h-254q0 16 1 27q2 21 10 64q8 44 26 91q17 45 52 96q39 57 84 92q47 37 127 64t177 27q208 0 329 -115q119 -113 119 -315
q0 -110 -46 -203q-47 -96 -169 -197zM442 182q0 79 57 136t136 57q77 0 134 -57q56 -56 56 -136q0 -78 -56 -134t-134 -56q-80 0 -136 56q-57 57 -57 134z" />
    <glyph glyph-name="at" unicode="@" 
d="M1128 199h-233v41q-51 -56 -162 -56q-270 0 -270 363v69q0 363 270 363q93 0 144 -39q-1 148 -59 225q-57 76 -183 76q-130 0 -186 -77t-56 -232v-696q0 -156 56 -233t186 -77q164 0 215 129h260q-37 -178 -157 -274t-318 -96q-245 0 -369 144q-125 145 -125 407v696
q0 261 125 406t369 145t369 -145q124 -143 124 -406v-733zM877 522v119q0 70 -18 100q-19 31 -60 31q-49 0 -67 -30q-17 -28 -17 -101v-119q0 -73 17 -101q18 -30 67 -30q41 0 60 31q18 30 18 100z" />
    <glyph glyph-name="A" unicode="A" 
d="M760 1452l452 -1452h-258l-96 326h-446l-97 -326h-258l453 1452h250zM635 1075l-154 -516h307z" />
    <glyph glyph-name="B" unicode="B" 
d="M195 1452h499q223 0 341 -100t118 -295q0 -209 -174 -301q201 -96 201 -330q0 -216 -127 -321t-353 -105h-505v1452zM928 436q0 201 -246 201h-238v-408h238q246 0 246 207zM901 1047q0 90 -55 133t-176 43h-226v-357h226q231 0 231 181z" />
    <glyph glyph-name="C" unicode="C" 
d="M1161 997h-254q-29 244 -254 244q-258 0 -258 -309v-412q0 -309 258 -309q225 0 254 244h254q-17 -231 -147 -358q-131 -128 -361 -128q-246 0 -378 146q-132 145 -132 405v412q0 260 132 405q132 146 378 146q230 0 361 -128q130 -127 147 -358z" />
    <glyph glyph-name="D" unicode="D" 
d="M164 0v1452h485q248 0 384 -146t136 -405v-350q0 -259 -136 -405t-384 -146h-485zM649 1210h-235v-968h235q269 0 269 309v350q0 309 -269 309z" />
    <glyph glyph-name="E" unicode="E" 
d="M1143 0h-971v1452h971v-238h-721v-344h616v-237h-616v-395h721v-238z" />
    <glyph glyph-name="F" unicode="F" 
d="M1184 1214h-762v-344h659v-237h-659v-633h-250v1452h1012v-238z" />
    <glyph glyph-name="G" unicode="G" 
d="M1133 997h-254q-29 244 -254 244q-258 0 -258 -309v-412q0 -309 258 -309q264 0 264 309v39h-275v234h525v-793h-240v94q-90 -125 -307 -125q-225 0 -351 147t-126 404v412q0 260 132 405q132 146 378 146q229 0 360 -128t148 -358z" />
    <glyph glyph-name="H" unicode="H" 
d="M1120 1452v-1452h-250v639h-471v-639h-249v1452h249v-580h471v580h250z" />
    <glyph glyph-name="I" unicode="I" 
d="M139 227h371v998h-371v227h991v-227h-370v-998h370v-227h-991v227z" />
    <glyph glyph-name="J" unicode="J" 
d="M553 -31q-219 0 -348 131q-129 130 -129 361h250q0 -118 58 -183q59 -67 169 -67t169 67q58 65 58 183v991h250v-991q0 -231 -129 -361q-129 -131 -348 -131z" />
    <glyph glyph-name="K" unicode="K" 
d="M399 1452v-770l559 770h308l-459 -590l450 -862h-286l-330 647l-242 -311v-336h-249v1452h249z" />
    <glyph glyph-name="L" unicode="L" 
d="M223 0v1452h250v-1214h752v-238h-1002z" />
    <glyph glyph-name="M" unicode="M" 
d="M870 0v1006l-235 -437l-236 437v-1006h-249v1452h233l252 -467l252 467h233v-1452h-250z" />
    <glyph glyph-name="N" unicode="N" 
d="M166 0v1452h235l451 -926v926h250v-1452h-234l-452 930v-930h-250z" />
    <glyph glyph-name="O" unicode="O" 
d="M1155 520q0 -258 -136 -404q-137 -147 -384 -147t-384 147q-136 146 -136 404v412q0 258 136 404q137 147 384 147t384 -147q136 -146 136 -404v-412zM367 932v-412q0 -309 268 -309t268 309v412q0 309 -268 309t-268 -309z" />
    <glyph glyph-name="P" unicode="P" 
d="M758 602h-334v-602h-250v1452h584q224 0 347 -112q122 -111 122 -314q0 -202 -122 -313q-121 -111 -347 -111zM737 1214h-313v-374h313q238 0 238 186q0 188 -238 188z" />
    <glyph glyph-name="Q" unicode="Q" 
d="M829 -236l-79 216q-64 -11 -115 -11q-247 0 -384 147q-136 146 -136 404v412q0 258 136 404q137 147 384 147t384 -147q136 -146 136 -404v-412q0 -308 -190 -452l114 -304h-250zM737 676l127 -342q39 72 39 186v412q0 309 -268 309t-268 -309v-412q0 -309 268 -309h27
l-175 465h250z" />
    <glyph glyph-name="R" unicode="R" 
d="M911 0l-247 602h-240v-602h-250v1452h522q224 0 347 -112q122 -111 122 -314q0 -302 -258 -391l269 -635h-265zM676 1214h-252v-374h252q237 0 237 186q0 188 -237 188z" />
    <glyph glyph-name="S" unicode="S" 
d="M1145 395q0 -206 -148 -316t-364 -110q-148 0 -260 53t-162 125q-51 74 -80 148q-28 73 -33 127l-2 51h254q0 -5 2 -29q1 -12 18 -63q15 -44 43 -80q26 -34 88 -63q61 -29 142 -29q117 0 184 47q66 46 66 135q0 72 -52 118q-51 45 -169 83l-158 51q-171 56 -256 153
q-86 98 -86 265q0 197 129 309q130 113 346 113q103 0 186 -27q82 -27 134 -71q52 -45 89 -96q37 -52 55 -103q16 -45 28 -95q10 -43 12 -71v-27h-254q0 16 -1 27q-2 21 -15 59q-15 44 -38 77t-77 61q-51 26 -125 26q-217 0 -217 -174q0 -72 48 -114q47 -41 136 -70l158 -49
q190 -57 284 -162q95 -106 95 -279z" />
    <glyph glyph-name="T" unicode="T" 
d="M29 1214v238h1212v-238h-481v-1214h-250v1214h-481z" />
    <glyph glyph-name="U" unicode="U" 
d="M870 1452h250v-952q0 -531 -485 -531t-485 531v952h249v-952q0 -153 53 -221t183 -68t183 68q52 67 52 221v952z" />
    <glyph glyph-name="V" unicode="V" 
d="M1212 1452l-452 -1452h-250l-453 1452h258l320 -1077l319 1077h258z" />
    <glyph glyph-name="W" unicode="W" 
d="M850 442l51 1010h250l-61 -1452h-234l-221 457l-221 -457h-234l-61 1452h250l51 -1010l215 441z" />
    <glyph glyph-name="X" unicode="X" 
d="M920 0l-285 557l-285 -557h-297l393 715l-393 737h297l285 -575l285 575h297l-394 -737l394 -715h-297z" />
    <glyph glyph-name="Y" unicode="Y" 
d="M760 612v-385h330v-227h-910v227h330v385l-444 840h286l283 -580l283 580h286z" />
    <glyph glyph-name="Z" unicode="Z" 
d="M1124 1452v-252l-698 -962h704v-238h-991v252l697 962h-684v238h972z" />
    <glyph glyph-name="bracketleft" unicode="[" 
d="M672 -14h295v-230h-537v1805h537v-230h-295v-1345z" />
    <glyph glyph-name="backslash" unicode="\" 
d="M924 0l-858 1452h270l858 -1452h-270z" />
    <glyph glyph-name="bracketright" unicode="]" 
d="M303 -14h295v1345h-295v230h537v-1805h-537v230z" />
    <glyph glyph-name="asciicircum" unicode="^" 
d="M358 535h-252l408 917h242l407 -917h-252l-276 639z" />
    <glyph glyph-name="underscore" unicode="_" 
d="M82 -225v225h1106v-225h-1106z" />
    <glyph glyph-name="grave" unicode="`" 
d="M897 1133l-524 157v236l524 -178v-215z" />
    <glyph glyph-name="a" unicode="a" 
d="M838 0v100q-92 -131 -316 -131q-168 0 -267 81t-99 239q0 266 376 323l140 21q54 8 80 15t50 30q23 22 23 61q0 62 -46 98q-45 35 -138 35q-65 0 -115 -18q-49 -18 -70 -45q-22 -29 -35 -54q-13 -27 -15 -46v-19h-238q0 16 3 43q3 24 29 95q25 68 69 121q42 50 142 95
q96 43 228 43q218 0 322 -100t104 -276v-711h-227zM563 184q123 0 193 64q69 63 69 182v39q-40 -21 -116 -31l-140 -20q-85 -12 -127 -37q-41 -24 -41 -80q0 -117 162 -117z" />
    <glyph glyph-name="b" unicode="b" 
d="M1153 496q0 -232 -116 -380q-115 -147 -341 -147q-199 0 -284 133v-102h-230v1479h242v-506q90 114 272 114q226 0 341 -146q116 -148 116 -380v-65zM666 862q-242 0 -242 -270v-113q0 -284 242 -284q243 0 243 299v69q0 299 -243 299z" />
    <glyph glyph-name="c" unicode="c" 
d="M1100 690h-246q-30 172 -213 172q-238 0 -238 -299v-69q0 -299 238 -299q183 0 213 172h246q-18 -177 -139 -287q-121 -111 -320 -111q-228 0 -355 148q-126 147 -126 379v65q0 232 126 379t355 147q200 0 320 -110q121 -110 139 -287z" />
    <glyph glyph-name="d" unicode="d" 
d="M117 496v65q0 234 115 380t341 146q183 0 273 -114v506h241v-1479h-229v102q-85 -133 -285 -133q-225 0 -341 147q-115 146 -115 380zM846 479v107q0 276 -242 276q-244 0 -244 -299v-69q0 -299 244 -299q242 0 242 284z" />
    <glyph glyph-name="e" unicode="e" 
d="M147 561q0 232 125 380q124 146 363 146q236 0 351 -145q116 -146 116 -381v-125h-713q7 -108 69 -176q59 -65 175 -65q159 0 203 131h249q-29 -164 -144 -260q-117 -97 -308 -97q-237 0 -362 147q-124 146 -124 380v65zM633 868q-224 0 -242 -229h467q-18 229 -225 229z
" />
    <glyph glyph-name="f" unicode="f" 
d="M123 827v220h348v61q0 192 119 306q118 114 334 114q65 0 129 -8q45 -6 86 -17l24 -6v-225q-126 31 -239 31q-107 0 -160 -48q-51 -47 -51 -147v-61h458v-220h-458v-827h-242v827h-348z" />
    <glyph glyph-name="g" unicode="g" 
d="M1135 1311h24v-228h-22q-123 0 -123 -127v-28q59 -87 59 -211q0 -183 -117 -277q-116 -94 -301 -94h-49q-74 0 -145 19q-58 -17 -58 -78q0 -86 107 -86h244q420 0 420 -338q0 -166 -119 -262q-120 -97 -348 -97h-103q-448 0 -448 312q0 145 118 227q-88 73 -88 197
q0 139 107 211q-105 95 -105 266q0 182 117 276q116 94 301 94h49q86 0 164 -22q45 246 316 246zM737 -18h-262q-96 -27 -96 -125q0 -133 223 -133h94q130 0 186 31t56 102q0 68 -46 96q-47 29 -155 29zM657 877h-53q-96 0 -143 -38t-47 -122t47 -122t143 -38h53
q97 0 144 38t47 122t-47 122t-144 38z" />
    <glyph glyph-name="h" unicode="h" 
d="M178 0v1479h240v-508q90 114 291 114q180 0 283 -113q104 -115 104 -306v-666h-240v637q0 113 -56 175t-153 62t-163 -60t-66 -173v-641h-240z" />
    <glyph glyph-name="i" unicode="i" 
d="M190 219h377v619h-307v219h549v-838h379v-219h-998v219zM492 1384q0 75 52 127q54 54 128 54q72 0 126 -54q52 -52 52 -127q0 -76 -52 -127t-126 -51q-76 0 -128 51t-52 127z" />
    <glyph glyph-name="j" unicode="j" 
d="M860 1057v-985q0 -248 -130 -377t-368 -129q-52 0 -108 6q-52 6 -84 14l-29 6v230q99 -31 221 -31q139 0 198 62q58 61 58 219v766h-479v219h721zM553 1384q0 75 52 127q54 54 128 54q72 0 126 -54q52 -52 52 -127q0 -76 -52 -127q-53 -51 -126 -51q-75 0 -128 51
q-52 51 -52 127z" />
    <glyph glyph-name="k" unicode="k" 
d="M477 1481v-903l404 469h317l-381 -410l389 -637h-286l-271 455l-172 -187v-268h-241v1481h241z" />
    <glyph glyph-name="l" unicode="l" 
d="M135 219h377v1041h-307v219h549v-1260h379v-219h-998v219z" />
    <glyph glyph-name="m" unicode="m" 
d="M526 0v756q0 67 -18 97t-68 30q-98 0 -98 -127v-756h-225v1057h194v-53q54 81 181 81q128 0 190 -84q72 84 199 84q139 0 205 -76q67 -78 67 -245v-764h-225v756q0 65 -19 97q-18 30 -67 30q-99 0 -99 -127v-756h-217z" />
    <glyph glyph-name="n" unicode="n" 
d="M420 0h-242v1057h230v-88q100 116 297 116q185 0 289 -113q106 -115 106 -306v-666h-242v637q0 237 -211 237q-99 0 -163 -58t-64 -175v-641z" />
    <glyph glyph-name="o" unicode="o" 
d="M143 561q0 233 127 379q128 147 365 147t364 -147q127 -146 127 -379v-65q0 -233 -127 -379q-128 -148 -364 -148q-237 0 -365 148q-127 146 -127 379v65zM387 563v-69q0 -299 248 -299t248 299v69q0 299 -248 299t-248 -299z" />
    <glyph glyph-name="p" unicode="p" 
d="M1153 561v-65q0 -232 -116 -380q-115 -147 -341 -147q-181 0 -272 115v-422h-242v1395h230v-103q88 133 284 133q226 0 341 -146q116 -148 116 -380zM666 195q243 0 243 299v69q0 299 -243 299q-242 0 -242 -270v-113q0 -284 242 -284z" />
    <glyph glyph-name="q" unicode="q" 
d="M117 561q0 234 115 380t341 146q197 0 285 -133v103h229v-1395h-241v422q-91 -115 -273 -115q-225 0 -341 147q-115 146 -115 380v65zM846 578q0 284 -242 284q-244 0 -244 -299v-69q0 -299 244 -299q242 0 242 284v99z" />
    <glyph glyph-name="r" unicode="r" 
d="M152 1057h387v-96q85 114 270 114q175 0 270 -102q96 -103 103 -283h-244q-21 164 -180 164q-83 0 -133 -50t-50 -147v-438h443v-219h-866v219h182v619h-182v219z" />
    <glyph glyph-name="s" unicode="s" 
d="M1092 307q0 -164 -124 -251t-327 -87q-141 0 -242 43q-102 44 -149 104t-74 121q-28 61 -29 103l-4 43h240q0 -4 2 -22q1 -12 15 -47q12 -31 38 -60q23 -26 78 -48t125 -22q205 0 205 117q0 45 -31 68q-29 22 -106 34l-187 31q-315 51 -315 320q0 156 117 244
q118 89 307 89q97 0 173 -21q78 -21 124 -57q49 -38 82 -78q34 -42 51 -84q15 -39 25 -78q11 -45 12 -56v-23h-238q0 13 -1 21q-2 15 -13 43q-12 30 -34 55q-21 24 -70 44q-47 19 -111 19q-180 0 -180 -110q0 -82 120 -103l187 -30q334 -55 334 -322z" />
    <glyph glyph-name="t" unicode="t" 
d="M90 827v220h287v217l241 241v-458h500v-220h-500v-378q0 -134 54 -190q52 -54 182 -54q74 0 138 16q70 17 98 33l28 14v-227q-94 -61 -287 -61q-454 0 -454 458v389h-287z" />
    <glyph glyph-name="u" unicode="u" 
d="M844 1057h241v-1057h-229v88q-102 -117 -289 -117q-184 0 -289 114q-106 115 -106 306v666h242v-637q0 -238 211 -238q97 0 158 58t61 176v641z" />
    <glyph glyph-name="v" unicode="v" 
d="M764 0h-252l-424 1057h268l283 -756l283 756h268z" />
    <glyph glyph-name="w" unicode="w" 
d="M635 371l-189 -371h-235l-57 1057h225l29 -721l227 455l227 -455l29 721h225l-57 -1057h-236z" />
    <glyph glyph-name="x" unicode="x" 
d="M872 0l-239 426l-240 -426h-289l328 541l-313 516h289l225 -404l225 404h289l-313 -516l327 -541h-289z" />
    <glyph glyph-name="y" unicode="y" 
d="M764 0l-37 -92q-79 -196 -182 -273q-100 -75 -289 -75q-31 0 -71 5q-36 5 -54 9l-16 4v223q57 -20 153 -20q87 0 136 34q51 35 83 122l25 63l-424 1057h268l283 -756l283 756h268z" />
    <glyph glyph-name="z" unicode="z" 
d="M201 838v219h868v-211l-557 -627h563v-219h-880v209l559 629h-553z" />
    <glyph glyph-name="braceleft" unicode="{" 
d="M365 545v227q155 6 155 150v252q0 387 367 387h74v-230h-52q-83 0 -115 -35t-32 -122v-244q0 -236 -170 -266v-9q170 -38 170 -268v-244q0 -88 32 -123q31 -34 115 -34h52v-230h-74q-367 0 -367 387v252q0 144 -155 150z" />
    <glyph glyph-name="bar" unicode="|" 
d="M748 -233h-226v1783h226v-1783z" />
    <glyph glyph-name="braceright" unicode="}" 
d="M905 772v-227q-155 -6 -155 -150v-252q0 -387 -367 -387h-74v230h51q85 0 116 34q32 35 32 123v244q0 230 170 268v9q-170 33 -170 266v244q0 87 -32 122t-116 35h-51v230h74q367 0 367 -387v-252q0 -144 155 -150z" />
    <glyph glyph-name="asciitilde" unicode="~" 
d="M379 446q-83 0 -146 -20q-68 -22 -90 -41l-26 -23v252q2 1 11.5 8.5t16.5 12.5q17 11 85 33q63 20 143 20q113 0 249 -42t257 -42q76 0 148 22q68 21 97 42l29 20v-252q-97 -74 -268 -74q-125 0 -261 42t-245 42z" />
    <glyph glyph-name="uni00A0" unicode="&#xa0;" 
 />
    <glyph glyph-name="exclamdown" unicode="&#xa1;" 
d="M735 575l45 -970h-293l48 970h200zM442 874q0 78 57 135q56 56 136 56q78 0 134 -56t56 -135q0 -80 -56 -136t-134 -56q-80 0 -136 56q-57 57 -57 136z" />
    <glyph glyph-name="cent" unicode="&#xa2;" 
d="M530 -178v368q-177 38 -271 177q-95 140 -95 340v65q0 198 95 338q94 138 271 176v350h226v-348q151 -30 241 -135q91 -106 107 -252h-246q-30 172 -213 172q-237 0 -237 -299v-69q0 -299 237 -299q183 0 213 172h246q-16 -148 -107 -254t-241 -134v-368h-226z" />
    <glyph glyph-name="sterling" unicode="&#xa3;" 
d="M170 788h115q-56 168 -56 269q0 197 118 311q120 115 319 115q91 0 167 -26q73 -25 120 -66q42 -37 80 -91q34 -48 49 -99q18 -59 25 -91q10 -43 11 -66v-26h-254q0 13 -1 23q-2 24 -12 55q-12 38 -30 67q-19 30 -59 54t-96 24q-93 0 -139 -49t-46 -133q0 -115 60 -256
l6 -15h414v-237h-316l131 -313h363v-238h-969v238h336l-129 313h-207v237z" />
    <glyph glyph-name="yen" unicode="&#xa5;" 
d="M242 438h268v123h-268v223h252l-404 668h293l252 -453l252 453h293l-406 -668h254v-223h-268v-123h268v-223h-268v-215h-250v215h-268v223z" />
    <glyph glyph-name="brokenbar" unicode="&#xa6;" 
d="M748 922h-226v632h226v-632zM748 -102h-226v632h226v-632z" />
    <glyph glyph-name="section" unicode="&#xa7;" 
d="M1092 336q0 -164 -129 -289q59 -93 59 -209q0 -158 -107 -245q-106 -87 -284 -87q-119 0 -203 40q-86 41 -125 96q-39 56 -61 111q-24 60 -25 95l-4 41h238q0 -9 1 -17q2 -15 11 -41q12 -33 27 -51q20 -23 55 -40q40 -19 86 -19q147 0 147 117q0 40 -25 71q-28 35 -81 79
l-295 254q-110 96 -154 177q-45 83 -45 204q0 167 129 286q-59 90 -59 211q0 158 106 245t285 87q119 0 203 -40q87 -41 125 -95q38 -55 61 -112q24 -60 25 -95l4 -41h-238q0 9 -1 17q-2 15 -11 41q-11 33 -28 52q-21 24 -54 40q-37 18 -86 18q-147 0 -147 -117
q0 -39 25 -70q28 -35 81 -79l295 -254q110 -96 154 -177q45 -82 45 -204zM508 473l295 -254q43 46 43 113q0 80 -84 153l-295 254q-43 -43 -43 -112q0 -81 84 -154z" />
    <glyph glyph-name="dieresis" unicode="&#xa8;" 
d="M283 1321q0 63 45 110q45 46 110 46q66 0 111 -46q45 -47 45 -110t-45 -110q-45 -46 -111 -46q-65 0 -110 46q-45 47 -45 110zM674 1321q0 64 46 110t109 46q64 0 110 -46t46 -110t-46 -110t-110 -46q-63 0 -109 46t-46 110z" />
    <glyph glyph-name="copyright" unicode="&#xa9;" 
d="M365 723q0 129 70 211t202 82q70 0 126 -25q55 -25 79 -60q27 -40 40 -72q16 -37 17 -60l2 -25h-162q0 6 -1 10q-3 12 -6 22q-5 16 -14 28q-8 10 -31 22q-20 10 -50 10q-113 0 -113 -143t113 -143q47 0 71 23t29 46l2 23h162q0 -5 -2 -27q-1 -15 -17 -57q-15 -40 -40 -73
q-23 -30 -79 -58q-54 -27 -126 -27q-132 0 -202 82t-70 211zM238 723q0 -180 108 -291q107 -110 289 -110t289 110q108 111 108 291t-108 291q-107 110 -289 110t-289 -110q-108 -111 -108 -291zM90 723q0 241 152 395t393 154t393 -154t152 -395t-152 -395t-393 -154
t-393 154t-152 395z" />
    <glyph glyph-name="ordfeminine" unicode="&#xaa;" 
d="M784 684v53q-75 -71 -213 -71q-126 0 -198 60t-72 177q0 198 277 242l98 16q98 15 98 64q0 84 -119 84q-67 0 -106 -33q-38 -33 -43 -66l-4 -32h-197q0 9 1 17q2 18 7 43q5 27 19 60q13 31 39 64q28 35 61 60q33 24 92 43q57 18 129 18q316 0 316 -279v-520h-185z
M600 840q168 0 174 168v10q-35 -14 -84 -21l-86 -14q-106 -16 -106 -74q0 -69 102 -69z" />
    <glyph glyph-name="guillemotleft" unicode="&#xab;" 
d="M408 0l-293 528l293 529h276l-297 -529l297 -528h-276zM877 0l-293 528l293 529h276l-297 -529l297 -528h-276z" />
    <glyph glyph-name="logicalnot" unicode="&#xac;" 
d="M106 416v225h1057v-567h-225v342h-832z" />
    <glyph glyph-name="registered" unicode="&#xae;" 
d="M90 723q0 241 152 395t393 154t393 -154t152 -395t-152 -395t-393 -154t-393 154t-152 395zM238 723q0 -180 108 -291q107 -110 289 -110t289 110q108 111 108 291t-108 291q-107 110 -289 110t-289 -110q-108 -111 -108 -291zM725 440l-90 189h-60v-189h-151v566h246
q92 0 149 -52q55 -51 55 -137q0 -112 -92 -162l111 -215h-168zM575 770h91q51 0 51 47t-51 47h-91v-94z" />
    <glyph glyph-name="macron" unicode="&#xaf;" 
d="M287 1227v225h696v-225h-696z" />
    <glyph glyph-name="degree" unicode="&#xb0;" 
d="M983 1143q0 -149 -99 -247q-98 -97 -249 -97q-149 0 -247 97q-99 98 -99 247t99 247q98 97 247 97q151 0 249 -97q99 -98 99 -247zM778 1143q0 66 -40 106q-41 41 -103 41q-60 0 -101 -41q-40 -40 -40 -106q0 -67 40 -107q41 -41 101 -41q62 0 103 41q40 40 40 107z" />
    <glyph glyph-name="plusminus" unicode="&#xb1;" 
d="M106 760v225h416v416h226v-416h415v-225h-415v-416h-226v416h-416zM106 0v225h1057v-225h-1057z" />
    <glyph glyph-name="twosuperior" unicode="&#xb2;" 
d="M889 815h-506v143l266 213q49 40 49 76q0 23 -16 39q-17 17 -49 17q-33 0 -51 -21q-20 -23 -21 -41l-2 -20h-178q0 4 2 26q1 17 15 60q12 40 38 75q23 32 78 60q51 26 125 26q116 0 178 -58q64 -59 64 -155q0 -111 -109 -196l-102 -80h219v-164z" />
    <glyph glyph-name="threesuperior" unicode="&#xb3;" 
d="M373 1028h184q0 -2 2 -16q1 -8 24 -28q20 -17 58 -17q31 0 50 12q20 12 20 31q0 45 -76 45h-113v159h113q65 0 65 46q0 43 -59 43q-33 0 -55 -16q-22 -15 -23 -30l-2 -16h-184q0 5 2 25q1 13 15 54q13 40 39 70q25 30 80 54q54 24 128 24q105 0 172 -55q68 -56 68 -151
q0 -73 -52 -125q62 -47 62 -129q0 -97 -72 -152q-71 -55 -178 -55q-78 0 -131 23q-56 24 -80 57q-26 35 -39 66q-14 33 -16 57z" />
    <glyph glyph-name="acute" unicode="&#xb4;" 
d="M897 1290l-524 -157v215l524 178v-236z" />
    <glyph glyph-name="mu" unicode="&#xb5;" 
d="M846 1057h241v-1057h-229v88q-100 -117 -289 -117q-79 0 -153 27v-338h-242v1397h242v-637q0 -238 211 -238q97 0 158 58t61 176v641z" />
    <glyph glyph-name="paragraph" unicode="&#xb6;" 
d="M492 1452h569v-1708h-217v1489h-135v-1489h-217v936q-164 0 -272 105q-107 104 -107 282q0 177 107 281t272 104z" />
    <glyph glyph-name="periodcentered" unicode="&#xb7;" 
d="M442 528q0 80 57 137q56 56 136 56q78 0 134 -56t56 -137q0 -78 -56 -134t-134 -56q-80 0 -136 56q-57 57 -57 134z" />
    <glyph glyph-name="cedilla" unicode="&#xb8;" 
d="M782 8l-57 -330h-238l68 330h227z" />
    <glyph glyph-name="onesuperior" unicode="&#xb9;" 
d="M408 977h139v264l-139 -72v185l180 98h137v-475h137v-164h-454v164z" />
    <glyph glyph-name="ordmasculine" unicode="&#xba;" 
d="M274 1098q0 171 92 278t269 107q176 0 268 -108q92 -109 92 -277v-45q0 -173 -91 -279t-269 -106q-177 0 -268 106q-93 108 -93 279v45zM471 1100v-49q0 -201 164 -201t164 201v49q0 200 -164 200t-164 -200z" />
    <glyph glyph-name="guillemotright" unicode="&#xbb;" 
d="M1153 528l-293 -528h-276l297 528l-297 529h276zM684 528l-293 -528h-276l297 528l-297 529h276z" />
    <glyph glyph-name="onequarter" unicode="&#xbc;" 
d="M856 0v100h-317v140l299 401h198v-379h121v-162h-121v-100h-180zM117 262v221l1036 699v-221zM438 1452v-475h137v-164h-454v164h139v264l-139 -72v185l180 98h137zM748 262h108v146z" />
    <glyph glyph-name="onehalf" unicode="&#xbd;" 
d="M1176 0h-506v143l266 213q49 40 49 76q0 23 -16 39t-49 16q-35 0 -52 -20q-19 -22 -20 -41l-2 -20h-178q0 4 2 26q2 16 15 60q12 40 38 75q23 32 78 60q51 26 125 26q116 0 178 -58q63 -59 63 -155q0 -112 -108 -196l-103 -80h220v-164zM117 262v221l1036 699v-221z
M438 1452v-475h137v-164h-454v164h139v264l-139 -72v185l180 98h137z" />
    <glyph glyph-name="threequarters" unicode="&#xbe;" 
d="M856 0v100h-317v140l299 401h198v-379h121v-162h-121v-100h-180zM102 1028h185q0 -2 2 -16q1 -9 23 -28q20 -17 59 -17q31 0 50 12t19 31q0 45 -75 45h-113v159h113q65 0 65 46q0 43 -59 43q-34 0 -56 -16q-20 -15 -22 -30l-2 -16h-185q0 4 1.5 12.5t1.5 12.5q1 13 15 54
q13 40 39 70q25 30 80 54q54 24 128 24q105 0 172 -55t67 -151q0 -74 -51 -125q62 -47 62 -129q0 -97 -72 -152q-71 -55 -178 -55q-78 0 -131 23q-56 24 -80 57q-26 35 -39 66q-16 36 -17 57zM117 262v221l1036 699v-221zM748 262h108v146z" />
    <glyph glyph-name="questiondown" unicode="&#xbf;" 
d="M702 645v-330l-133 -110q-116 -98 -116 -201q0 -86 51 -137t145 -51q65 0 109 22q45 22 66 54q23 34 34 65q13 35 14 55v23h254q0 -16 -1 -27q-2 -21 -10 -64q-9 -50 -25 -91q-17 -44 -53 -97q-37 -55 -84 -91q-47 -37 -127 -64t-177 -27q-207 0 -328 115
q-120 114 -120 315q0 110 46 203q46 94 169 196zM844 874q0 -79 -57 -136q-56 -56 -136 -56q-78 0 -134 56t-56 136q0 79 56 135t134 56q80 0 136 -56q57 -57 57 -135z" />
    <glyph glyph-name="Agrave" unicode="&#xc0;" 
d="M760 1452l452 -1452h-258l-96 326h-446l-97 -326h-258l453 1452h250zM635 1075l-154 -516h307zM897 1528l-524 158v235l524 -178v-215z" />
    <glyph glyph-name="Aacute" unicode="&#xc1;" 
d="M760 1452l452 -1452h-258l-96 326h-446l-97 -326h-258l453 1452h250zM635 1075l-154 -516h307zM897 1686l-524 -158v215l524 178v-235z" />
    <glyph glyph-name="Acircumflex" unicode="&#xc2;" 
d="M760 1452l452 -1452h-258l-96 326h-446l-97 -326h-258l453 1452h250zM635 1075l-154 -516h307zM639 1688l-315 -172v227l315 172l305 -172v-227z" />
    <glyph glyph-name="Atilde" unicode="&#xc3;" 
d="M760 1452l452 -1452h-258l-96 326h-446l-97 -326h-258l453 1452h250zM635 1075l-154 -516h307zM821 1587q-81 0 -194 36q-112 36 -172 36q-59 0 -108 -18q-54 -19 -73 -35l-20 -19v232q71 61 195 61q81 0 195 -36t171 -36q59 0 108 18t72 36l21 18v-231q-73 -62 -195 -62
z" />
    <glyph glyph-name="Adieresis" unicode="&#xc4;" 
d="M760 1452l452 -1452h-258l-96 326h-446l-97 -326h-258l453 1452h250zM635 1075l-154 -516h307zM283 1716q0 66 45 111t110 45q66 0 111 -45t45 -111q0 -65 -45 -110t-111 -45q-65 0 -110 45t-45 110zM674 1716q0 66 46 111t109 45t110 -45q46 -45 46 -111q0 -65 -46 -110
q-47 -45 -110 -45t-109 45t-46 110z" />
    <glyph glyph-name="Aring" unicode="&#xc5;" 
d="M760 1452l452 -1452h-258l-96 326h-446l-97 -326h-258l453 1452h250zM635 1075l-154 -516h307zM393 1788q0 100 71 171t171 71t171 -71t71 -171t-71 -171t-171 -71t-171 71t-71 171zM545 1788q0 -38 26 -64t64 -26q37 0 63 26q27 27 27 64q0 36 -27 63t-63 27
q-37 0 -64 -27q-26 -26 -26 -63z" />
    <glyph glyph-name="AE" unicode="&#xc6;" 
d="M1171 0h-602v326h-231l-80 -326h-258l356 1452h815v-238h-352v-344h289v-237h-289v-395h352v-238zM557 1214l-162 -655h174v655h-12z" />
    <glyph glyph-name="Ccedilla" unicode="&#xc7;" 
d="M1161 997h-254q-29 244 -254 244q-258 0 -258 -309v-412q0 -309 258 -309q225 0 254 244h254q-17 -198 -113 -320q-97 -123 -272 -153l-51 -304h-238l62 299q-196 28 -301 170q-105 141 -105 373v412q0 260 132 405q132 146 378 146q230 0 361 -128q130 -127 147 -358z
" />
    <glyph glyph-name="Egrave" unicode="&#xc8;" 
d="M1143 0h-971v1452h971v-238h-721v-344h616v-237h-616v-395h721v-238zM897 1528l-524 158v235l524 -178v-215z" />
    <glyph glyph-name="Eacute" unicode="&#xc9;" 
d="M1143 0h-971v1452h971v-238h-721v-344h616v-237h-616v-395h721v-238zM897 1686l-524 -158v215l524 178v-235z" />
    <glyph glyph-name="Ecircumflex" unicode="&#xca;" 
d="M1143 0h-971v1452h971v-238h-721v-344h616v-237h-616v-395h721v-238zM639 1688l-315 -172v227l315 172l305 -172v-227z" />
    <glyph glyph-name="Edieresis" unicode="&#xcb;" 
d="M1143 0h-971v1452h971v-238h-721v-344h616v-237h-616v-395h721v-238zM283 1716q0 66 45 111t110 45q66 0 111 -45t45 -111q0 -65 -45 -110t-111 -45q-65 0 -110 45t-45 110zM674 1716q0 66 46 111t109 45t110 -45q46 -45 46 -111q0 -65 -46 -110q-47 -45 -110 -45
t-109 45t-46 110z" />
    <glyph glyph-name="Igrave" unicode="&#xcc;" 
d="M139 227h371v998h-371v227h991v-227h-370v-998h370v-227h-991v227zM897 1528l-524 158v235l524 -178v-215z" />
    <glyph glyph-name="Iacute" unicode="&#xcd;" 
d="M139 227h371v998h-371v227h991v-227h-370v-998h370v-227h-991v227zM897 1686l-524 -158v215l524 178v-235z" />
    <glyph glyph-name="Icircumflex" unicode="&#xce;" 
d="M139 227h371v998h-371v227h991v-227h-370v-998h370v-227h-991v227zM639 1688l-315 -172v227l315 172l305 -172v-227z" />
    <glyph glyph-name="Idieresis" unicode="&#xcf;" 
d="M139 227h371v998h-371v227h991v-227h-370v-998h370v-227h-991v227zM283 1716q0 66 45 111t110 45q66 0 111 -45t45 -111q0 -65 -45 -110t-111 -45q-65 0 -110 45t-45 110zM674 1716q0 66 46 111t109 45t110 -45q46 -45 46 -111q0 -65 -46 -110q-47 -45 -110 -45t-109 45
t-46 110z" />
    <glyph glyph-name="Eth" unicode="&#xd0;" 
d="M150 0v612h-115v226h115v614h485q248 0 384 -146t136 -405v-350q0 -259 -136 -405t-384 -146h-485zM635 1210h-236v-372h291v-226h-291v-370h236q268 0 268 309v350q0 309 -268 309z" />
    <glyph glyph-name="Ntilde" unicode="&#xd1;" 
d="M166 0v1452h235l451 -926v926h250v-1452h-234l-452 930v-930h-250zM821 1587q-81 0 -194 36q-112 36 -172 36q-59 0 -108 -18q-54 -19 -73 -35l-20 -19v232q71 61 195 61q81 0 195 -36t171 -36q59 0 108 18t72 36l21 18v-231q-73 -62 -195 -62z" />
    <glyph glyph-name="Ograve" unicode="&#xd2;" 
d="M1155 520q0 -258 -136 -404q-137 -147 -384 -147t-384 147q-136 146 -136 404v412q0 258 136 404q137 147 384 147t384 -147q136 -146 136 -404v-412zM367 932v-412q0 -309 268 -309t268 309v412q0 309 -268 309t-268 -309zM897 1528l-524 158v235l524 -178v-215z" />
    <glyph glyph-name="Oacute" unicode="&#xd3;" 
d="M1155 520q0 -258 -136 -404q-137 -147 -384 -147t-384 147q-136 146 -136 404v412q0 258 136 404q137 147 384 147t384 -147q136 -146 136 -404v-412zM367 932v-412q0 -309 268 -309t268 309v412q0 309 -268 309t-268 -309zM897 1686l-524 -158v215l524 178v-235z" />
    <glyph glyph-name="Ocircumflex" unicode="&#xd4;" 
d="M1155 520q0 -258 -136 -404q-137 -147 -384 -147t-384 147q-136 146 -136 404v412q0 258 136 404q137 147 384 147t384 -147q136 -146 136 -404v-412zM367 932v-412q0 -309 268 -309t268 309v412q0 309 -268 309t-268 -309zM639 1688l-315 -172v227l315 172l305 -172
v-227z" />
    <glyph glyph-name="Otilde" unicode="&#xd5;" 
d="M1155 520q0 -258 -136 -404q-137 -147 -384 -147t-384 147q-136 146 -136 404v412q0 258 136 404q137 147 384 147t384 -147q136 -146 136 -404v-412zM367 932v-412q0 -309 268 -309t268 309v412q0 309 -268 309t-268 -309zM821 1587q-81 0 -194 36q-112 36 -172 36
q-59 0 -108 -18q-54 -19 -73 -35l-20 -19v232q71 61 195 61q81 0 195 -36t171 -36q59 0 108 18t72 36l21 18v-231q-73 -62 -195 -62z" />
    <glyph glyph-name="Odieresis" unicode="&#xd6;" 
d="M1155 520q0 -258 -136 -404q-137 -147 -384 -147t-384 147q-136 146 -136 404v412q0 258 136 404q137 147 384 147t384 -147q136 -146 136 -404v-412zM367 932v-412q0 -309 268 -309t268 309v412q0 309 -268 309t-268 -309zM283 1716q0 66 45 111t110 45q66 0 111 -45
t45 -111q0 -65 -45 -110t-111 -45q-65 0 -110 45t-45 110zM674 1716q0 66 46 111t109 45t110 -45q46 -45 46 -111q0 -65 -46 -110q-47 -45 -110 -45t-109 45t-46 110z" />
    <glyph glyph-name="multiply" unicode="&#xd7;" 
d="M297 31l-160 159l338 338l-338 338l160 160l338 -338l338 338l160 -160l-338 -338l338 -338l-160 -159l-338 338z" />
    <glyph glyph-name="Oslash" unicode="&#xd8;" 
d="M1155 520q0 -258 -136 -404q-137 -147 -384 -147q-95 0 -182 25l-41 -107h-230l84 213q-151 145 -151 420v412q0 258 136 404q137 147 384 147q83 0 168 -21l53 133h229l-92 -235q162 -146 162 -428v-412zM903 932q0 81 -22 147l-338 -858q44 -10 92 -10q268 0 268 309
v412zM367 932v-412q0 -79 14 -127l332 840q-53 8 -78 8q-268 0 -268 -309z" />
    <glyph glyph-name="Ugrave" unicode="&#xd9;" 
d="M870 1452h250v-952q0 -531 -485 -531t-485 531v952h249v-952q0 -153 53 -221t183 -68t183 68q52 67 52 221v952zM897 1528l-524 158v235l524 -178v-215z" />
    <glyph glyph-name="Uacute" unicode="&#xda;" 
d="M870 1452h250v-952q0 -531 -485 -531t-485 531v952h249v-952q0 -153 53 -221t183 -68t183 68q52 67 52 221v952zM897 1686l-524 -158v215l524 178v-235z" />
    <glyph glyph-name="Ucircumflex" unicode="&#xdb;" 
d="M870 1452h250v-952q0 -531 -485 -531t-485 531v952h249v-952q0 -153 53 -221t183 -68t183 68q52 67 52 221v952zM639 1688l-315 -172v227l315 172l305 -172v-227z" />
    <glyph glyph-name="Udieresis" unicode="&#xdc;" 
d="M870 1452h250v-952q0 -531 -485 -531t-485 531v952h249v-952q0 -153 53 -221t183 -68t183 68q52 67 52 221v952zM283 1716q0 66 45 111t110 45q66 0 111 -45t45 -111q0 -65 -45 -110t-111 -45q-65 0 -110 45t-45 110zM674 1716q0 66 46 111t109 45t110 -45
q46 -45 46 -111q0 -65 -46 -110q-47 -45 -110 -45t-109 45t-46 110z" />
    <glyph glyph-name="Yacute" unicode="&#xdd;" 
d="M760 612v-385h330v-227h-910v227h330v385l-444 840h286l283 -580l283 580h286zM897 1686l-524 -158v215l524 178v-235z" />
    <glyph glyph-name="Thorn" unicode="&#xde;" 
d="M440 1452v-301h293q224 0 347 -112q122 -111 122 -314q0 -202 -122 -313t-347 -111h-293v-301h-250v1452h250zM713 913h-273v-374h273q237 0 237 186q0 188 -237 188z" />
    <glyph glyph-name="germandbls" unicode="&#xdf;" 
d="M1188 299q0 -162 -97 -244t-264 -82q-97 0 -172 32q-73 31 -106 78q-33 46 -52 92q-21 49 -22 79l-2 31h240q0 -10 3 -28q3 -17 32 -45q30 -28 79 -28q117 0 117 115q0 44 -34 78q-36 36 -83 63q-40 23 -97 64q-47 34 -82 96q-34 61 -34 145q0 60 22 113q20 49 53 85
q28 31 64 65q32 30 53 62t21 65q0 147 -192 147q-221 0 -221 -274v-1008h-242v1010q0 248 128 373q127 124 335 124q205 0 320 -103q116 -104 116 -276q0 -80 -34 -141q-36 -63 -72 -90q-39 -28 -73 -64q-34 -35 -34 -73q0 -36 34 -67q35 -32 83 -61q44 -27 97 -68
q48 -37 82 -106q34 -68 34 -159z" />
    <glyph glyph-name="agrave" unicode="&#xe0;" 
d="M838 0v100q-92 -131 -316 -131q-168 0 -267 81t-99 239q0 266 376 323l140 21q54 8 80 15t50 30q23 22 23 61q0 62 -46 98q-45 35 -138 35q-65 0 -115 -18q-49 -18 -70 -45q-22 -29 -35 -54q-13 -27 -15 -46v-19h-238q0 16 3 43q3 24 29 95q25 68 69 121q42 50 142 95
q96 43 228 43q218 0 322 -100t104 -276v-711h-227zM563 184q123 0 193 64q69 63 69 182v39q-40 -21 -116 -31l-140 -20q-85 -12 -127 -37q-41 -24 -41 -80q0 -117 162 -117zM897 1133l-524 157v236l524 -178v-215z" />
    <glyph glyph-name="aacute" unicode="&#xe1;" 
d="M838 0v100q-92 -131 -316 -131q-168 0 -267 81t-99 239q0 266 376 323l140 21q54 8 80 15t50 30q23 22 23 61q0 62 -46 98q-45 35 -138 35q-65 0 -115 -18q-49 -18 -70 -45q-22 -29 -35 -54q-13 -27 -15 -46v-19h-238q0 16 3 43q3 24 29 95q25 68 69 121q42 50 142 95
q96 43 228 43q218 0 322 -100t104 -276v-711h-227zM563 184q123 0 193 64q69 63 69 182v39q-40 -21 -116 -31l-140 -20q-85 -12 -127 -37q-41 -24 -41 -80q0 -117 162 -117zM897 1290l-524 -157v215l524 178v-236z" />
    <glyph glyph-name="acircumflex" unicode="&#xe2;" 
d="M838 0v100q-92 -131 -316 -131q-168 0 -267 81t-99 239q0 266 376 323l140 21q54 8 80 15t50 30q23 22 23 61q0 62 -46 98q-45 35 -138 35q-65 0 -115 -18q-49 -18 -70 -45q-22 -29 -35 -54q-13 -27 -15 -46v-19h-238q0 16 3 43q3 24 29 95q25 68 69 121q42 50 142 95
q96 43 228 43q218 0 322 -100t104 -276v-711h-227zM563 184q123 0 193 64q69 63 69 182v39q-40 -21 -116 -31l-140 -20q-85 -12 -127 -37q-41 -24 -41 -80q0 -117 162 -117zM639 1292l-315 -172v228l315 172l305 -172v-228z" />
    <glyph glyph-name="atilde" unicode="&#xe3;" 
d="M838 0v100q-92 -131 -316 -131q-168 0 -267 81t-99 239q0 266 376 323l140 21q54 8 80 15t50 30q23 22 23 61q0 62 -46 98q-45 35 -138 35q-65 0 -115 -18q-49 -18 -70 -45q-22 -29 -35 -54q-13 -27 -15 -46v-19h-238q0 16 3 43q3 24 29 95q25 68 69 121q42 50 142 95
q96 43 228 43q218 0 322 -100t104 -276v-711h-227zM563 184q123 0 193 64q69 63 69 182v39q-40 -21 -116 -31l-140 -20q-85 -12 -127 -37q-41 -24 -41 -80q0 -117 162 -117zM821 1192q-81 0 -194 36q-112 36 -172 36q-59 0 -108 -18q-51 -19 -73 -36l-20 -18v231
q73 62 195 62q81 0 195 -36t171 -36q59 0 108 18q52 19 72 35l21 19v-232q-71 -61 -195 -61z" />
    <glyph glyph-name="adieresis" unicode="&#xe4;" 
d="M838 0v100q-92 -131 -316 -131q-168 0 -267 81t-99 239q0 266 376 323l140 21q54 8 80 15t50 30q23 22 23 61q0 62 -46 98q-45 35 -138 35q-65 0 -115 -18q-49 -18 -70 -45q-22 -29 -35 -54q-13 -27 -15 -46v-19h-238q0 16 3 43q3 24 29 95q25 68 69 121q42 50 142 95
q96 43 228 43q218 0 322 -100t104 -276v-711h-227zM563 184q123 0 193 64q69 63 69 182v39q-40 -21 -116 -31l-140 -20q-85 -12 -127 -37q-41 -24 -41 -80q0 -117 162 -117zM283 1321q0 63 45 110q45 46 110 46q66 0 111 -46q45 -47 45 -110t-45 -110q-45 -46 -111 -46
q-65 0 -110 46q-45 47 -45 110zM674 1321q0 64 46 110t109 46q64 0 110 -46t46 -110t-46 -110t-110 -46q-63 0 -109 46t-46 110z" />
    <glyph glyph-name="aring" unicode="&#xe5;" 
d="M838 0v100q-92 -131 -316 -131q-168 0 -267 81t-99 239q0 266 376 323l140 21q54 8 80 15t50 30q23 22 23 61q0 62 -46 98q-45 35 -138 35q-65 0 -115 -18q-49 -18 -70 -45q-22 -29 -35 -54q-13 -27 -15 -46v-19h-238q0 16 3 43q3 24 29 95q25 68 69 121q42 50 142 95
q96 43 228 43q218 0 322 -100t104 -276v-711h-227zM563 184q123 0 193 64q69 63 69 182v39q-40 -21 -116 -31l-140 -20q-85 -12 -127 -37q-41 -24 -41 -80q0 -117 162 -117zM393 1393q0 100 71 171q70 70 171 70t171 -70q71 -71 71 -171t-71 -171t-171 -71t-171 71t-71 171z
M545 1393q0 -38 26 -64t64 -26q37 0 63 26q27 27 27 64q0 36 -27 63t-63 27q-37 0 -64 -27q-26 -26 -26 -63z" />
    <glyph glyph-name="ae" unicode="&#xe6;" 
d="M1223 444h-471v-106q0 -148 116 -148q110 0 117 123h238q-7 -164 -101 -255q-92 -89 -254 -89t-256 90q-84 -90 -229 -90q-159 0 -250 77q-90 76 -90 237q0 206 205 290l162 66q40 17 53 25q22 13 34 30q16 22 17 47v11q0 114 -117 114q-109 0 -116 -123h-238
q7 165 100 255q92 89 254 89q145 0 236 -73q91 73 235 73q168 0 261 -97q94 -99 94 -273v-273zM281 303q0 -125 116 -125q54 0 85 43q32 44 32 117v149h-2l-4 -2l-150 -63q-77 -34 -77 -119zM985 719q0 147 -117 147q-116 0 -116 -147v-78h233v78z" />
    <glyph glyph-name="ccedilla" unicode="&#xe7;" 
d="M1100 690h-246q-30 172 -213 172q-238 0 -238 -299v-69q0 -299 238 -299q183 0 213 172h246q-15 -142 -99 -244q-85 -103 -223 -137l-53 -308h-238l62 299q-188 28 -289 170q-100 140 -100 349v65q0 232 126 379t355 147q200 0 320 -110q121 -110 139 -287z" />
    <glyph glyph-name="egrave" unicode="&#xe8;" 
d="M147 561q0 232 125 380q124 146 363 146q236 0 351 -145q116 -146 116 -381v-125h-713q7 -108 69 -176q59 -65 175 -65q159 0 203 131h249q-29 -164 -144 -260q-117 -97 -308 -97q-237 0 -362 147q-124 146 -124 380v65zM633 868q-224 0 -242 -229h467q-18 229 -225 229z
M897 1133l-524 157v236l524 -178v-215z" />
    <glyph glyph-name="eacute" unicode="&#xe9;" 
d="M147 561q0 232 125 380q124 146 363 146q236 0 351 -145q116 -146 116 -381v-125h-713q7 -108 69 -176q59 -65 175 -65q159 0 203 131h249q-29 -164 -144 -260q-117 -97 -308 -97q-237 0 -362 147q-124 146 -124 380v65zM633 868q-224 0 -242 -229h467q-18 229 -225 229z
M897 1290l-524 -157v215l524 178v-236z" />
    <glyph glyph-name="ecircumflex" unicode="&#xea;" 
d="M147 561q0 232 125 380q124 146 363 146q236 0 351 -145q116 -146 116 -381v-125h-713q7 -108 69 -176q59 -65 175 -65q159 0 203 131h249q-29 -164 -144 -260q-117 -97 -308 -97q-237 0 -362 147q-124 146 -124 380v65zM633 868q-224 0 -242 -229h467q-18 229 -225 229z
M639 1292l-315 -172v228l315 172l305 -172v-228z" />
    <glyph glyph-name="edieresis" unicode="&#xeb;" 
d="M147 561q0 232 125 380q124 146 363 146q236 0 351 -145q116 -146 116 -381v-125h-713q7 -108 69 -176q59 -65 175 -65q159 0 203 131h249q-29 -164 -144 -260q-117 -97 -308 -97q-237 0 -362 147q-124 146 -124 380v65zM633 868q-224 0 -242 -229h467q-18 229 -225 229z
M283 1321q0 63 45 110q45 46 110 46q66 0 111 -46q45 -47 45 -110t-45 -110q-45 -46 -111 -46q-65 0 -110 46q-45 47 -45 110zM674 1321q0 64 46 110t109 46q64 0 110 -46t46 -110t-46 -110t-110 -46q-63 0 -109 46t-46 110z" />
    <glyph glyph-name="igrave" unicode="&#xec;" 
d="M190 219h377v619h-307v219h549v-838h379v-219h-998v219zM897 1133l-524 157v236l524 -178v-215z" />
    <glyph glyph-name="iacute" unicode="&#xed;" 
d="M190 219h377v619h-307v219h549v-838h379v-219h-998v219zM897 1290l-524 -157v215l524 178v-236z" />
    <glyph glyph-name="icircumflex" unicode="&#xee;" 
d="M190 219h377v619h-307v219h549v-838h379v-219h-998v219zM639 1292l-315 -172v228l315 172l305 -172v-228z" />
    <glyph glyph-name="idieresis" unicode="&#xef;" 
d="M190 219h377v619h-307v219h549v-838h379v-219h-998v219zM283 1321q0 63 45 110q45 46 110 46q66 0 111 -46q45 -47 45 -110t-45 -110q-45 -46 -111 -46q-65 0 -110 46q-45 47 -45 110zM674 1321q0 64 46 110t109 46q64 0 110 -46t46 -110t-46 -110t-110 -46
q-63 0 -109 46t-46 110z" />
    <glyph glyph-name="eth" unicode="&#xf0;" 
d="M143 496v65q0 233 127 379q128 147 365 147q54 0 108 -10l-36 117h-203v174h149l-41 131h242l43 -131h162v-174h-107l121 -363q53 -165 53 -270v-65q0 -233 -127 -379q-128 -148 -364 -148q-237 0 -365 148q-127 146 -127 379zM387 563v-69q0 -299 248 -299t248 299v69
q0 299 -248 299t-248 -299z" />
    <glyph glyph-name="ntilde" unicode="&#xf1;" 
d="M420 0h-242v1057h230v-88q100 116 297 116q185 0 289 -113q106 -115 106 -306v-666h-242v637q0 237 -211 237q-99 0 -163 -58t-64 -175v-641zM821 1192q-81 0 -194 36q-112 36 -172 36q-59 0 -108 -18q-51 -19 -73 -36l-20 -18v231q73 62 195 62q81 0 195 -36t171 -36
q59 0 108 18q52 19 72 35l21 19v-232q-71 -61 -195 -61z" />
    <glyph glyph-name="ograve" unicode="&#xf2;" 
d="M143 561q0 233 127 379q128 147 365 147t364 -147q127 -146 127 -379v-65q0 -233 -127 -379q-128 -148 -364 -148q-237 0 -365 148q-127 146 -127 379v65zM387 563v-69q0 -299 248 -299t248 299v69q0 299 -248 299t-248 -299zM897 1133l-524 157v236l524 -178v-215z" />
    <glyph glyph-name="oacute" unicode="&#xf3;" 
d="M143 561q0 233 127 379q128 147 365 147t364 -147q127 -146 127 -379v-65q0 -233 -127 -379q-128 -148 -364 -148q-237 0 -365 148q-127 146 -127 379v65zM387 563v-69q0 -299 248 -299t248 299v69q0 299 -248 299t-248 -299zM897 1290l-524 -157v215l524 178v-236z" />
    <glyph glyph-name="ocircumflex" unicode="&#xf4;" 
d="M143 561q0 233 127 379q128 147 365 147t364 -147q127 -146 127 -379v-65q0 -233 -127 -379q-128 -148 -364 -148q-237 0 -365 148q-127 146 -127 379v65zM387 563v-69q0 -299 248 -299t248 299v69q0 299 -248 299t-248 -299zM639 1292l-315 -172v228l315 172l305 -172
v-228z" />
    <glyph glyph-name="otilde" unicode="&#xf5;" 
d="M143 561q0 233 127 379q128 147 365 147t364 -147q127 -146 127 -379v-65q0 -233 -127 -379q-128 -148 -364 -148q-237 0 -365 148q-127 146 -127 379v65zM387 563v-69q0 -299 248 -299t248 299v69q0 299 -248 299t-248 -299zM821 1192q-81 0 -194 36q-112 36 -172 36
q-59 0 -108 -18q-51 -19 -73 -36l-20 -18v231q73 62 195 62q81 0 195 -36t171 -36q59 0 108 18q52 19 72 35l21 19v-232q-71 -61 -195 -61z" />
    <glyph glyph-name="odieresis" unicode="&#xf6;" 
d="M143 561q0 233 127 379q128 147 365 147t364 -147q127 -146 127 -379v-65q0 -233 -127 -379q-128 -148 -364 -148q-237 0 -365 148q-127 146 -127 379v65zM387 563v-69q0 -299 248 -299t248 299v69q0 299 -248 299t-248 -299zM283 1321q0 63 45 110q45 46 110 46
q66 0 111 -46q45 -47 45 -110t-45 -110q-45 -46 -111 -46q-65 0 -110 46q-45 47 -45 110zM674 1321q0 64 46 110t109 46q64 0 110 -46t46 -110t-46 -110t-110 -46q-63 0 -109 46t-46 110z" />
    <glyph glyph-name="divide" unicode="&#xf7;" 
d="M106 416v225h1057v-225h-1057zM467 160q0 70 49 119t119 49t119 -49t49 -119t-49 -119t-119 -49t-119 49t-49 119zM467 897q0 70 49 119t119 49t119 -49t49 -119t-49 -119t-119 -49t-119 49t-49 119z" />
    <glyph glyph-name="oslash" unicode="&#xf8;" 
d="M143 561q0 233 127 379q128 147 365 147q81 0 149 -18l58 121h227l-102 -217q159 -141 159 -412v-65q0 -233 -127 -379q-128 -148 -364 -148q-71 0 -139 17l-70 -148h-227l112 238q-168 141 -168 420v65zM387 563v-69q0 -114 37 -185l260 549q-29 4 -49 4
q-248 0 -248 -299zM883 563q0 100 -31 170l-256 -536q16 -2 39 -2q248 0 248 299v69z" />
    <glyph glyph-name="ugrave" unicode="&#xf9;" 
d="M844 1057h241v-1057h-229v88q-102 -117 -289 -117q-184 0 -289 114q-106 115 -106 306v666h242v-637q0 -238 211 -238q97 0 158 58t61 176v641zM897 1133l-524 157v236l524 -178v-215z" />
    <glyph glyph-name="uacute" unicode="&#xfa;" 
d="M844 1057h241v-1057h-229v88q-102 -117 -289 -117q-184 0 -289 114q-106 115 -106 306v666h242v-637q0 -238 211 -238q97 0 158 58t61 176v641zM897 1290l-524 -157v215l524 178v-236z" />
    <glyph glyph-name="ucircumflex" unicode="&#xfb;" 
d="M844 1057h241v-1057h-229v88q-102 -117 -289 -117q-184 0 -289 114q-106 115 -106 306v666h242v-637q0 -238 211 -238q97 0 158 58t61 176v641zM639 1292l-315 -172v228l315 172l305 -172v-228z" />
    <glyph glyph-name="udieresis" unicode="&#xfc;" 
d="M844 1057h241v-1057h-229v88q-102 -117 -289 -117q-184 0 -289 114q-106 115 -106 306v666h242v-637q0 -238 211 -238q97 0 158 58t61 176v641zM283 1321q0 63 45 110q45 46 110 46q66 0 111 -46q45 -47 45 -110t-45 -110q-45 -46 -111 -46q-65 0 -110 46q-45 47 -45 110
zM674 1321q0 64 46 110t109 46q64 0 110 -46t46 -110t-46 -110t-110 -46q-63 0 -109 46t-46 110z" />
    <glyph glyph-name="yacute" unicode="&#xfd;" 
d="M1190 1057l-463 -1149q-79 -196 -182 -273q-100 -75 -289 -75q-31 0 -71 5q-36 5 -54 9l-16 4v223q57 -20 153 -20q87 0 136 34q51 35 83 122l25 63l-424 1057h268l283 -756l283 756h268zM897 1290l-524 -157v215l524 178v-236z" />
    <glyph glyph-name="thorn" unicode="&#xfe;" 
d="M1147 561v-65q0 -237 -107 -382t-329 -145q-200 0 -291 142v-451h-242v1819h242v-535q91 143 291 143q223 0 329 -144q107 -145 107 -382zM662 195q243 0 243 299v69q0 299 -243 299q-118 0 -180 -71t-62 -213v-84q0 -299 242 -299z" />
    <glyph glyph-name="ydieresis" unicode="&#xff;" 
d="M764 0l-37 -92q-79 -196 -182 -273q-100 -75 -289 -75q-31 0 -71 5q-36 5 -54 9l-16 4v223q57 -20 153 -20q87 0 136 34q51 35 83 122l25 63l-424 1057h268l283 -756l283 756h268zM287 1321q0 63 45 110q45 46 110 46q66 0 111 -46q45 -47 45 -110t-45 -110
q-45 -46 -111 -46q-65 0 -110 46q-45 47 -45 110zM678 1321q0 64 46 110t110 46q63 0 109 -46t46 -110t-46 -110t-109 -46q-64 0 -110 46t-46 110z" />
    <glyph glyph-name="dotlessi" unicode="&#x131;" 
d="M190 219h377v619h-307v219h549v-838h379v-219h-998v219z" />
    <glyph glyph-name="Lslash" unicode="&#x141;" 
d="M223 0v502l-114 -70v246l114 70v704h250v-549l291 180v-245l-291 -181v-419h752v-238h-1002z" />
    <glyph glyph-name="lslash" unicode="&#x142;" 
d="M135 219h377v352l-207 -127v246l207 127v443h-307v219h549v-512l207 129v-246l-207 -129v-502h379v-219h-998v219z" />
    <glyph glyph-name="OE" unicode="&#x152;" 
d="M115 989q0 238 109 350q110 113 345 113h664v-238h-383v-344h305v-237h-305v-395h383v-238h-664q-235 0 -345 113q-109 112 -109 350v526zM367 989v-526q0 -129 43 -175t165 -46h25v968h-25q-122 0 -165 -46t-43 -175z" />
    <glyph glyph-name="oe" unicode="&#x153;" 
d="M43 340v377q0 175 93 273q93 97 261 97q145 0 236 -73q91 73 235 73q168 0 261 -97q94 -99 94 -273v-273h-471v-104q0 -150 116 -150q110 0 117 123h238q-7 -164 -101 -255q-92 -89 -254 -89q-143 0 -235 74q-92 -74 -236 -74q-168 0 -261 98q-93 97 -93 273zM281 719
v-381q0 -148 116 -148q117 0 117 132v411q0 133 -117 133q-116 0 -116 -147zM752 733v-92h233v78q0 147 -117 147q-116 0 -116 -133z" />
    <glyph glyph-name="Scaron" unicode="&#x160;" 
d="M1145 395q0 -206 -148 -316t-364 -110q-148 0 -260 53t-162 125q-51 74 -80 148q-28 73 -33 127l-2 51h254q0 -5 2 -29q1 -12 18 -63q15 -44 43 -80q26 -34 88 -63q61 -29 142 -29q117 0 184 47q66 46 66 135q0 72 -52 118q-51 45 -169 83l-158 51q-171 56 -256 153
q-86 98 -86 265q0 197 129 309q130 113 346 113q103 0 186 -27q82 -27 134 -71q52 -45 89 -96q37 -52 55 -103q16 -45 28 -95q10 -43 12 -71v-27h-254q0 16 -1 27q-2 21 -15 59q-15 44 -38 77t-77 61q-51 26 -125 26q-217 0 -217 -174q0 -72 48 -114q47 -41 136 -70l158 -49
q190 -57 284 -162q95 -106 95 -279zM324 1915l315 -172l305 172v-227l-305 -172l-315 172v227z" />
    <glyph glyph-name="scaron" unicode="&#x161;" 
d="M1092 307q0 -164 -124 -251t-327 -87q-141 0 -242 43q-102 44 -149 104t-74 121q-28 61 -29 103l-4 43h240q0 -4 2 -22q1 -12 15 -47q12 -31 38 -60q23 -26 78 -48t125 -22q205 0 205 117q0 45 -31 68q-29 22 -106 34l-187 31q-315 51 -315 320q0 156 117 244
q118 89 307 89q97 0 173 -21q78 -21 124 -57q49 -38 82 -78q34 -42 51 -84q15 -39 25 -78q11 -45 12 -56v-23h-238q0 13 -1 21q-2 15 -13 43q-12 30 -34 55q-21 24 -70 44q-47 19 -111 19q-180 0 -180 -110q0 -82 120 -103l187 -30q334 -55 334 -322zM324 1520l315 -172
l305 172v-228l-305 -172l-315 172v228z" />
    <glyph glyph-name="Ydieresis" unicode="&#x178;" 
d="M760 612v-385h330v-227h-910v227h330v385l-444 840h286l283 -580l283 580h286zM285 1737q0 65 46 110t109 45q64 0 110 -45t46 -110q0 -66 -46 -111t-110 -45q-62 0 -109 45q-46 45 -46 111zM676 1737q0 65 45 110t110 45q66 0 111 -45t45 -110q0 -66 -45 -111t-111 -45
q-65 0 -110 45t-45 111z" />
    <glyph glyph-name="Zcaron" unicode="&#x17d;" 
d="M1124 1452v-252l-698 -962h704v-238h-991v252l697 962h-684v238h972zM324 1915l315 -172l305 172v-227l-305 -172l-315 172v227z" />
    <glyph glyph-name="zcaron" unicode="&#x17e;" 
d="M201 838v219h868v-211l-557 -627h563v-219h-880v209l559 629h-553zM324 1520l315 -172l305 172v-228l-305 -172l-315 172v228z" />
    <glyph glyph-name="florin" unicode="&#x192;" 
d="M344 676v219h231l43 213q39 196 144 298q104 101 303 101l53 -2v-225q-28 2 -39 2q-106 0 -152 -43t-67 -145l-39 -199h191v-219h-234l-127 -647q-39 -197 -143 -298q-105 -102 -303 -102l-53 2v226q28 -2 38 -2q107 0 153 43t67 145l122 633h-188z" />
    <glyph glyph-name="circumflex" unicode="&#x2c6;" 
d="M635 1292l-316 -172v228l316 172l305 -172v-228z" />
    <glyph glyph-name="caron" unicode="&#x2c7;" 
d="M319 1520l316 -172l305 172v-228l-305 -172l-316 172v228z" />
    <glyph glyph-name="breve" unicode="&#x2d8;" 
d="M635 1153q-157 0 -248 96t-96 230h209q6 -140 135 -140t135 140h209q-5 -134 -96 -230t-248 -96z" />
    <glyph glyph-name="dotaccent" unicode="&#x2d9;" 
d="M442 1374q0 79 57 136t136 57q77 0 134 -57q56 -56 56 -136q0 -78 -56 -134t-134 -56q-80 0 -136 56q-57 57 -57 134z" />
    <glyph glyph-name="ring" unicode="&#x2da;" 
d="M393 1393q0 100 71 171q70 70 171 70t171 -70q71 -71 71 -171t-71 -171t-171 -71t-171 71t-71 171zM545 1393q0 -38 26 -64t64 -26q37 0 63 26q27 27 27 64q0 36 -27 63t-63 27q-37 0 -64 -27q-26 -26 -26 -63z" />
    <glyph glyph-name="ogonek" unicode="&#x2db;" 
d="M545 -322l-58 330h228l67 -330h-237z" />
    <glyph glyph-name="tilde" unicode="&#x2dc;" 
d="M821 1192q-81 0 -194 36q-112 36 -172 36q-59 0 -108 -18q-51 -19 -73 -36l-20 -18v231q73 62 195 62q81 0 195 -36t171 -36q59 0 108 18q52 19 72 35l21 19v-232q-71 -61 -195 -61z" />
    <glyph glyph-name="hungarumlaut" unicode="&#x2dd;" 
d="M631 1311l-391 -166v192l391 203v-229zM1030 1311l-391 -166v192l391 203v-229z" />
    <glyph glyph-name="pi" unicode="&#x3c0;" 
d="M90 723q0 241 152 395t393 154t393 -154t152 -395t-152 -395t-393 -154t-393 154t-152 395zM238 723q0 -180 108 -291q107 -110 289 -110t289 110q108 111 108 291t-108 291q-107 110 -289 110t-289 -110q-108 -111 -108 -291zM436 440v566h258q93 0 150 -52
q55 -51 55 -137t-55 -137q-56 -51 -150 -51h-106v-189h-152zM588 770h102q51 0 51 47t-51 47h-102v-94z" />
    <glyph glyph-name="endash" unicode="&#x2013;" 
d="M82 416v225h1106v-225h-1106z" />
    <glyph glyph-name="emdash" unicode="&#x2014;" 
d="M41 416v225h1188v-225h-1188z" />
    <glyph glyph-name="quoteleft" unicode="&#x2018;" 
d="M578 1452h251l-102 -711h-287z" />
    <glyph glyph-name="quoteright" unicode="&#x2019;" 
d="M692 741h-252l103 711h286z" />
    <glyph glyph-name="quotesinglbase" unicode="&#x201a;" 
d="M692 -451h-252l103 711h286z" />
    <glyph glyph-name="quotedblleft" unicode="&#x201c;" 
d="M352 1452h252l-102 -711h-287zM803 1452h252l-103 -711h-286z" />
    <glyph glyph-name="quotedblright" unicode="&#x201d;" 
d="M918 741h-252l102 711h287zM467 741h-252l102 711h287z" />
    <glyph glyph-name="quotedblbase" unicode="&#x201e;" 
d="M918 -451h-252l102 711h287zM467 -451h-252l102 711h287z" />
    <glyph glyph-name="dagger" unicode="&#x2020;" 
d="M176 1057h338v395h242v-395h336v-219h-336v-838h-242v838h-338v219z" />
    <glyph glyph-name="daggerdbl" unicode="&#x2021;" 
d="M756 -254h-242v395h-338v219h338v478h-338v219h338v395h242v-395h336v-219h-336v-478h336v-219h-336v-395z" />
    <glyph glyph-name="bullet" unicode="&#x2022;" 
d="M913 528q0 -114 -82 -196t-196 -82q-115 0 -197 82t-82 196q0 115 82 197t197 82q114 0 196 -82t82 -197z" />
    <glyph glyph-name="ellipsis" unicode="&#x2026;" 
d="M475 152q0 65 47 112t113 47t113 -47t47 -112q0 -66 -47 -113t-113 -47t-113 47t-47 113zM872 152q0 64 48 112q47 47 112 47q66 0 113 -47t47 -112q0 -66 -47 -113t-113 -47q-65 0 -112 47q-48 48 -48 113zM78 152q0 65 47 112t113 47q65 0 112 -47t47 -112
q0 -66 -47 -113t-112 -47q-66 0 -113 47t-47 113z" />
    <glyph glyph-name="perthousand" unicode="&#x2030;" 
d="M117 535v190l1036 442v-190zM276 1182q0 -119 82 -119t82 119q0 118 -82 118t-82 -118zM100 1182q0 124 66 204t192 80q127 0 193 -80q65 -78 65 -204q0 -127 -65 -205q-66 -80 -193 -80q-126 0 -192 80q-66 79 -66 205zM276 264q0 -119 82 -119t82 119t-82 119t-82 -119
zM100 264q0 126 66 205q66 80 192 80q127 0 193 -80q65 -78 65 -205t-65 -205q-66 -79 -193 -79q-126 0 -192 79t-66 205zM827 264q0 -119 82 -119t82 119t-82 119t-82 -119zM651 264q0 126 66 205q66 80 192 80q127 0 193 -80q65 -78 65 -205t-65 -205q-66 -79 -193 -79
q-126 0 -192 79t-66 205z" />
    <glyph glyph-name="guilsinglleft" unicode="&#x2039;" 
d="M643 0l-293 528l293 529h277l-297 -529l297 -528h-277z" />
    <glyph glyph-name="guilsinglright" unicode="&#x203a;" 
d="M920 528l-293 -528h-277l297 528l-297 529h277z" />
    <glyph glyph-name="fraction" unicode="&#x2044;" 
d="M1194 1452l-858 -1452h-270l858 1452h270z" />
    <glyph glyph-name="Euro" unicode="&#x20ac;" 
d="M1188 997h-254q-16 246 -234 246q-120 0 -172 -57t-63 -187h381v-223h-383v-102h383v-223h-381q11 -130 63 -187t172 -57q218 0 234 246h254q-12 -232 -136 -359t-352 -127t-349 126t-138 358h-115v223h113v102h-113v223h115q17 232 138 358t349 126t352 -127t136 -359z
" />
    <glyph glyph-name="trademark" unicode="&#x2122;" 
d="M883 1202l129 250h153v-721h-178v385l-104 -196l-105 196v-385h-178v721h154zM555 1284h-166v-553h-178v553h-166v168h510v-168z" />
    <glyph glyph-name="minus" unicode="&#x2212;" 
d="M106 416v225h1057v-225h-1057z" />
    <glyph glyph-name="notequal" unicode="&#x2260;" 
d="M106 623v225h558l106 209h266l-106 -209h233v-225h-348l-106 -209h454v-226h-569l-96 -188h-267l97 188h-222v226h336l107 209h-443z" />
    <glyph glyph-name="lessequal" unicode="&#x2264;" 
d="M434 416l316 -357h-281l-412 469l412 469h283l-316 -356h774v-225h-776z" />
    <glyph glyph-name="greaterequal" unicode="&#x2265;" 
d="M518 59l316 357h-777v225h774l-315 356h283l411 -469l-411 -469h-281z" />
  </font>
</defs>
</svg>
