<?xml version="1.0" encoding="utf-8"?>
<!-- Generator: Adobe Illustrator 27.6.1, SVG Export Plug-In . SVG Version: 6.00 Build 0)  -->
<svg version="1.1" id="Capa_1" xmlns="http://www.w3.org/2000/svg" xmlns:xlink="http://www.w3.org/1999/xlink" x="0px" y="0px"
	 viewBox="0 0 800 800" style="enable-background:new 0 0 800 800;" xml:space="preserve">
<style type="text/css">
	.st0{fill:#FFFFFF;}
</style>
<g>
	<g>
		<path class="st0" d="M595,512l97.9-383.32H800V68.42H646.1l-23.08,90.36L0,158.34L66.24,512L595,512L595,512L595,512z
			 M607.64,219.03L548.2,451.74H116.25l-43.66-233.1L607.64,219.03z"/>
		<path class="st0" d="M512.52,731.58c53.13,0,96.35-43.23,96.35-96.36c0-53.13-43.22-96.35-96.35-96.35H149.5
			c-53.13,0-96.36,43.22-96.36,96.35c0,53.13,43.22,96.36,96.36,96.36s96.35-43.23,96.35-96.36c0-12.76-2.5-24.94-7.02-36.1h184.36
			c-4.53,11.16-7.02,23.34-7.02,36.1C416.17,688.35,459.39,731.58,512.52,731.58z M185.6,635.22c0,19.91-16.19,36.1-36.1,36.1
			s-36.1-16.19-36.1-36.1c0-19.91,16.19-36.1,36.1-36.1C169.4,599.12,185.6,615.32,185.6,635.22z M548.62,635.22
			c0,19.91-16.19,36.1-36.1,36.1c-19.91,0-36.1-16.19-36.1-36.1c0-19.91,16.19-36.1,36.1-36.1
			C532.43,599.12,548.62,615.32,548.62,635.22z"/>
	</g>
</g>
</svg>
