<?xml version="1.0" encoding="utf-8"?>
<!-- Generator: Adobe Illustrator 24.2.3, SVG Export Plug-In . SVG Version: 6.00 Build 0)  -->
<svg version="1.1" id="Capa_1" xmlns="http://www.w3.org/2000/svg" xmlns:xlink="http://www.w3.org/1999/xlink" x="0px" y="0px"
	 viewBox="0 0 595.28 117.68" style="enable-background:new 0 0 595.28 117.68;" xml:space="preserve">
<style type="text/css">
	.st0{fill:#E9453F;}
	.st1{fill:#FFFFFF;}
	.st2{fill-rule:evenodd;clip-rule:evenodd;fill:#FFFFFF;}
	.st3{fill-rule:evenodd;clip-rule:evenodd;fill:#E9453F;}
</style>
<g>
	<circle class="st0" cx="298.43" cy="61.87" r="35.12"/>
	<g>
		<g>
			<path class="st1" d="M298.43,43.74c5.9,0,6.6,0.02,8.94,0.13c2.16,0.1,3.33,0.46,4.11,0.76c1.03,0.4,1.77,0.88,2.54,1.65
				s1.25,1.51,1.65,2.54c0.3,0.78,0.66,1.95,0.76,4.11c0.11,2.33,0.13,3.03,0.13,8.94s-0.02,6.6-0.13,8.94
				c-0.1,2.16-0.46,3.33-0.76,4.11c-0.4,1.03-0.88,1.77-1.65,2.54s-1.51,1.25-2.54,1.65c-0.78,0.3-1.95,0.66-4.11,0.76
				c-2.33,0.11-3.03,0.13-8.94,0.13s-6.6-0.02-8.94-0.13c-2.16-0.1-3.33-0.46-4.11-0.76c-1.03-0.4-1.77-0.88-2.54-1.65
				c-0.77-0.77-1.25-1.51-1.65-2.54c-0.3-0.78-0.66-1.95-0.76-4.11c-0.11-2.33-0.13-3.03-0.13-8.94s0.02-6.6,0.13-8.94
				c0.1-2.16,0.46-3.33,0.76-4.11c0.4-1.03,0.88-1.77,1.65-2.54c0.77-0.77,1.51-1.25,2.54-1.65c0.78-0.3,1.95-0.66,4.11-0.76
				C291.82,43.76,292.52,43.74,298.43,43.74 M298.43,39.76c-6.01,0-6.76,0.03-9.12,0.13c-2.35,0.11-3.96,0.48-5.37,1.03
				c-1.45,0.57-2.69,1.32-3.92,2.55c-1.23,1.23-1.99,2.46-2.55,3.92c-0.55,1.41-0.92,3.01-1.03,5.37c-0.11,2.36-0.13,3.11-0.13,9.12
				c0,6.01,0.03,6.76,0.13,9.12c0.11,2.35,0.48,3.96,1.03,5.37c0.57,1.45,1.32,2.69,2.55,3.92c1.23,1.23,2.46,1.99,3.92,2.55
				c1.41,0.55,3.01,0.92,5.37,1.03c2.36,0.11,3.11,0.13,9.12,0.13s6.76-0.03,9.12-0.13c2.35-0.11,3.96-0.48,5.37-1.03
				c1.45-0.57,2.69-1.32,3.92-2.55c1.23-1.23,1.99-2.46,2.55-3.92c0.55-1.41,0.92-3.01,1.03-5.37c0.11-2.36,0.13-3.11,0.13-9.12
				s-0.03-6.76-0.13-9.12c-0.11-2.35-0.48-3.96-1.03-5.37c-0.57-1.45-1.32-2.69-2.55-3.92c-1.23-1.23-2.46-1.99-3.92-2.55
				c-1.41-0.55-3.01-0.92-5.37-1.03C305.19,39.78,304.43,39.76,298.43,39.76L298.43,39.76z"/>
			<path class="st1" d="M298.43,50.51c-6.27,0-11.35,5.08-11.35,11.35s5.08,11.35,11.35,11.35s11.35-5.08,11.35-11.35
				S304.7,50.51,298.43,50.51z M298.43,69.24c-4.07,0-7.37-3.3-7.37-7.37s3.3-7.37,7.37-7.37s7.37,3.3,7.37,7.37
				S302.5,69.24,298.43,69.24z"/>
			<circle class="st1" cx="310.23" cy="50.06" r="2.65"/>
		</g>
	</g>
</g>
<g>
	<circle class="st0" cx="181.8" cy="61.87" r="35.12"/>
	<g>
		<g id="logo_5_">
			<path id="bubble_5_" class="st2" d="M181.8,35.85c-14.95,0-26.53,10.95-26.53,25.74c0,7.74,3.17,14.42,8.33,19.04
				c0.43,0.39,0.7,0.93,0.71,1.51l0.14,4.72c0.05,1.51,1.6,2.49,2.98,1.88l5.27-2.32c0.45-0.2,0.95-0.23,1.42-0.1
				c2.42,0.67,5,1.02,7.68,1.02c14.95,0,26.53-10.95,26.53-25.74S196.75,35.85,181.8,35.85z"/>
			<path id="bolt_5_" class="st3" d="M165.86,69.12l7.79-12.37c1.24-1.97,3.89-2.46,5.76-1.06l6.2,4.65
				c0.57,0.43,1.35,0.42,1.92-0.01l8.37-6.35c1.12-0.85,2.58,0.49,1.83,1.68l-7.79,12.37c-1.24,1.97-3.89,2.46-5.76,1.06l-6.2-4.65
				c-0.57-0.43-1.35-0.42-1.92,0.01l-8.37,6.35C166.57,71.64,165.12,70.31,165.86,69.12z"/>
		</g>
	</g>
</g>
<g>
	<circle class="st0" cx="415.06" cy="61.87" r="35.12"/>
	<g>
		<g id="WA_Logo_10_">
			<g>
				<path class="st2" d="M431.95,45.41c-4.21-4.21-9.8-6.53-15.76-6.53c-12.28,0-22.27,9.99-22.28,22.27
					c0,3.93,1.02,7.76,2.97,11.13l-3.16,11.54l11.81-3.1c3.25,1.77,6.92,2.71,10.65,2.71h0.01c0,0,0,0,0,0
					c12.28,0,22.27-9.99,22.28-22.27C438.47,55.21,436.16,49.62,431.95,45.41z M416.19,79.67L416.19,79.67
					c-3.33,0-6.59-0.89-9.43-2.58l-0.68-0.4l-7.01,1.84l1.87-6.83L400.5,71c-1.85-2.95-2.83-6.35-2.83-9.85
					c0-10.21,8.31-18.51,18.52-18.51c4.95,0,9.6,1.93,13.09,5.43c3.5,3.5,5.42,8.15,5.42,13.1C434.7,71.37,426.4,79.67,416.19,79.67
					z M426.35,65.81c-0.56-0.28-3.29-1.62-3.8-1.81c-0.51-0.19-0.88-0.28-1.25,0.28c-0.37,0.56-1.44,1.81-1.76,2.18
					s-0.65,0.42-1.21,0.14c-0.56-0.28-2.35-0.87-4.48-2.76c-1.65-1.48-2.77-3.3-3.1-3.86s-0.03-0.86,0.24-1.14
					c0.25-0.25,0.56-0.65,0.84-0.97c0.28-0.32,0.37-0.56,0.56-0.93c0.19-0.37,0.09-0.7-0.05-0.97c-0.14-0.28-1.25-3.02-1.72-4.13
					c-0.45-1.09-0.91-0.94-1.25-0.96c-0.32-0.02-0.7-0.02-1.07-0.02c-0.37,0-0.97,0.14-1.48,0.7c-0.51,0.56-1.95,1.9-1.95,4.64
					c0,2.74,1.99,5.39,2.27,5.76c0.28,0.37,3.93,5.99,9.51,8.4c1.33,0.57,2.37,0.92,3.17,1.17c1.33,0.42,2.55,0.36,3.51,0.22
					c1.07-0.16,3.29-1.35,3.76-2.65c0.46-1.3,0.46-2.41,0.32-2.65C427.28,66.23,426.9,66.09,426.35,65.81z"/>
			</g>
		</g>
	</g>
</g>
<g>
	<circle class="st3" cx="531.69" cy="61.87" r="35.12"/>
	<g>
		<g>
			<path class="st1" d="M524.59,82.09c17.15,0,26.53-14.21,26.53-26.53c0-0.4-0.01-0.81-0.03-1.21c1.82-1.32,3.4-2.96,4.65-4.83
				c-1.67,0.74-3.47,1.24-5.36,1.47c1.93-1.15,3.4-2.98,4.1-5.16c-1.8,1.07-3.8,1.85-5.92,2.26c-1.7-1.81-4.13-2.95-6.81-2.95
				c-5.15,0-9.33,4.18-9.33,9.32c0,0.73,0.08,1.44,0.24,2.13c-7.75-0.39-14.62-4.1-19.22-9.74c-0.8,1.38-1.26,2.98-1.26,4.69
				c0,3.24,1.65,6.09,4.15,7.76c-1.53-0.05-2.97-0.47-4.22-1.17c0,0.04,0,0.08,0,0.12c0,4.52,3.21,8.29,7.48,9.14
				c-0.78,0.21-1.61,0.33-2.46,0.33c-0.6,0-1.19-0.06-1.75-0.17c1.19,3.7,4.63,6.4,8.71,6.48c-3.19,2.5-7.21,3.99-11.58,3.99
				c-0.75,0-1.49-0.04-2.22-0.13C514.42,80.55,519.32,82.09,524.59,82.09"/>
		</g>
	</g>
</g>
<g>
	<path class="st0" d="M100.29,61.87c0-19.4-15.72-35.12-35.12-35.12S30.05,42.47,30.05,61.87c0,17.53,12.84,32.06,29.63,34.69V72.02
		h-8.92V61.87h8.92v-7.74c0-8.8,5.24-13.66,13.26-13.66c3.84,0,7.86,0.69,7.86,0.69v8.64h-4.43c-4.36,0-5.72,2.71-5.72,5.48v6.59
		h9.74l-1.56,10.15h-8.18v24.54C87.44,93.93,100.29,79.4,100.29,61.87z"/>
	<path class="st1" d="M78.84,72.02l1.56-10.15h-9.74v-6.59c0-2.78,1.36-5.48,5.72-5.48h4.43v-8.64c0,0-4.02-0.69-7.86-0.69
		c-8.02,0-13.26,4.86-13.26,13.66v7.74h-8.92v10.15h8.92v24.54c1.79,0.28,3.62,0.43,5.49,0.43c1.87,0,3.7-0.15,5.49-0.43V72.02
		H78.84z"/>
</g>
</svg>
